<svg width="22" height="20" viewBox="0 0 22 20" fill="none" xmlns="http://www.w3.org/2000/svg">
<path d="M17.0653 1.53661C16.8777 1.21479 16.6107 0.947447 16.2902 0.760626C15.9697 0.573805 15.6067 0.473878 15.2365 0.470581H6.76417C6.39399 0.473878 6.03097 0.573805 5.71048 0.760626C5.38998 0.947447 5.12295 1.21479 4.9354 1.53661L0.699229 8.93397C0.511134 9.26246 0.412109 9.63509 0.412109 10.0144C0.412109 10.3937 0.511134 10.7663 0.699229 11.0948L4.9354 18.4634C5.12295 18.7852 5.38998 19.0525 5.71048 19.2394C6.03097 19.4262 6.39399 19.5261 6.76417 19.5294H15.2365C15.6067 19.5261 15.9697 19.4262 16.2902 19.2394C16.6107 19.0525 16.8777 18.7852 17.0653 18.4634L21.3015 11.066C21.4896 10.7375 21.5886 10.3649 21.5886 9.98559C21.5886 9.60628 21.4896 9.23365 21.3015 8.90515L17.0653 1.53661ZM14.5722 9.99999C14.5722 10.7123 14.3627 11.4086 13.9702 12.0008C13.5777 12.5931 13.0199 13.0547 12.3672 13.3273C11.7146 13.5999 10.9964 13.6712 10.3035 13.5322C9.61065 13.3933 8.97422 13.0503 8.47469 12.5466C7.97516 12.0429 7.63498 11.4012 7.49716 10.7026C7.35934 10.004 7.43008 9.27986 7.70042 8.62178C7.97076 7.9637 8.42857 7.40124 9.01595 7.0055C9.60333 6.60977 10.2939 6.39855 11.0003 6.39855C11.9476 6.39855 12.8562 6.77799 13.526 7.45339C14.1958 8.12879 14.5722 9.04483 14.5722 9.99999Z" fill="#23396B"/>
</svg>
