<svg width="25" height="24" viewBox="0 0 25 24" fill="none" xmlns="http://www.w3.org/2000/svg">
<path d="M24.5 16.762C24.502 17.116 24.317 17.444 24.015 17.625L14.154 23.542C13.644 23.848 13.072 24.001 12.501 24.001C11.93 24.001 11.357 23.848 10.848 23.542L0.985016 17.625C0.682016 17.443 0.498016 17.115 0.500016 16.762C0.502016 16.409 0.690016 16.083 0.995016 15.905L5.85002 13.063C5.95002 13.173 6.05302 13.282 6.15902 13.388L8.65402 15.827C9.68202 16.833 11.049 17.388 12.5 17.388C13.951 17.388 15.317 16.833 16.346 15.827L18.864 13.364C18.962 13.266 19.058 13.165 19.151 13.063L24.005 15.904C24.31 16.083 24.498 16.41 24.5 16.762Z" fill="white"/>
<path d="M12.4997 1C14.1046 1 15.608 1.62275 16.7413 2.75684C17.8765 3.89287 18.4997 5.39485 18.4997 6.999C18.4997 8.60176 17.8776 10.104 16.7453 11.2382L14.2475 13.682C13.7696 14.1494 13.1389 14.387 12.4997 14.387C11.8604 14.387 11.2298 14.1494 10.7518 13.6821C10.7518 13.682 10.7518 13.682 10.7518 13.682L8.26097 11.2461C5.91755 8.89857 5.92029 5.09358 8.25676 2.75711C9.39116 1.62271 10.8948 1 12.4997 1Z" stroke="white" stroke-width="2"/>
<circle cx="12.5" cy="7" r="2" fill="white"/>
</svg>
