<svg width="64" height="69" viewBox="0 0 64 69" fill="none" xmlns="http://www.w3.org/2000/svg">
<g filter="url(#filter0_f_405_1079)">
<ellipse cx="32" cy="54" rx="8" ry="1" fill="black" fill-opacity="0.4"/>
</g>
<g filter="url(#filter1_b_405_1079)">
<path d="M32 42C41.9411 42 50 33.9411 50 24C50 14.0589 41.9411 6 32 6C22.0589 6 14 14.0589 14 24C14 33.9411 22.0589 42 32 42Z" fill="#5C5C5C"/>
</g>
<path d="M23.5996 20.25L24.9496 20.25L26.2996 22.05L31.2496 22.05L28.9996 14.4V14.4C30.1148 14.4 31.1468 14.9902 31.7122 15.9515L35.2996 22.05L40.2496 22.05C40.6246 22.05 40.9435 22.1814 41.2063 22.4442C41.4691 22.707 41.6002 23.0256 41.5996 23.4C41.5996 23.775 41.4682 24.0939 41.2054 24.3567C40.9426 24.6195 40.624 24.7506 40.2496 24.75L35.2996 24.75L31.7122 30.8485C31.1468 31.8098 30.1148 32.4 28.9996 32.4V32.4L31.2496 24.75L26.2996 24.75L24.9496 26.55L23.5996 26.55L24.4996 23.4L23.5996 20.25Z" fill="white"/>
<g filter="url(#filter2_d_405_1079)">
<path d="M48.9706 7.02935C44.4376 2.49642 38.4107 0 32 0C25.5893 0 19.5624 2.49642 15.0295 7.02935C10.4964 11.5625 8 17.5893 8 24C8 35.3096 15.9066 45.0736 26.8907 47.453L32 54L37.1095 47.4529C48.0934 45.0735 56 35.3096 56 24C56 17.5893 53.5036 11.5625 48.9706 7.02935ZM32 6.26549C41.7203 6.26549 49.6283 14.1736 49.6283 23.8938C49.6283 33.614 41.7203 41.5221 32 41.5221C22.2797 41.5221 14.3717 33.614 14.3717 23.8938C14.3717 14.1736 22.2797 6.26549 32 6.26549Z" fill="white"/>
</g>
<defs>
<filter id="filter0_f_405_1079" x="18" y="47" width="28" height="14" filterUnits="userSpaceOnUse" color-interpolation-filters="sRGB">
<feFlood flood-opacity="0" result="BackgroundImageFix"/>
<feBlend mode="normal" in="SourceGraphic" in2="BackgroundImageFix" result="shape"/>
<feGaussianBlur stdDeviation="3" result="effect1_foregroundBlur_405_1079"/>
</filter>
<filter id="filter1_b_405_1079" x="12.1471" y="4.14706" width="39.7059" height="39.7059" filterUnits="userSpaceOnUse" color-interpolation-filters="sRGB">
<feFlood flood-opacity="0" result="BackgroundImageFix"/>
<feGaussianBlur in="BackgroundImageFix" stdDeviation="0.926471"/>
<feComposite in2="SourceAlpha" operator="in" result="effect1_backgroundBlur_405_1079"/>
<feBlend mode="normal" in="SourceGraphic" in2="effect1_backgroundBlur_405_1079" result="shape"/>
</filter>
<filter id="filter2_d_405_1079" x="0.658823" y="0" width="62.6824" height="68.6824" filterUnits="userSpaceOnUse" color-interpolation-filters="sRGB">
<feFlood flood-opacity="0" result="BackgroundImageFix"/>
<feColorMatrix in="SourceAlpha" type="matrix" values="0 0 0 0 0 0 0 0 0 0 0 0 0 0 0 0 0 0 127 0" result="hardAlpha"/>
<feOffset dy="7.34118"/>
<feGaussianBlur stdDeviation="3.67059"/>
<feComposite in2="hardAlpha" operator="out"/>
<feColorMatrix type="matrix" values="0 0 0 0 0 0 0 0 0 0 0 0 0 0 0 0 0 0 0.15 0"/>
<feBlend mode="normal" in2="BackgroundImageFix" result="effect1_dropShadow_405_1079"/>
<feBlend mode="normal" in="SourceGraphic" in2="effect1_dropShadow_405_1079" result="shape"/>
</filter>
</defs>
</svg>
