<svg width="87" height="46" viewBox="0 0 87 46" fill="none" xmlns="http://www.w3.org/2000/svg">
<g filter="url(#filter0_b_403_1022)">
<rect width="87" height="46" rx="16" fill="url(#paint0_linear_403_1022)"/>
<g filter="url(#filter1_d_403_1022)">
<path d="M28.3615 18.275L26.2105 15.3703C25.9073 14.9468 25.5075 14.6017 25.0444 14.3634C24.5813 14.1252 24.0681 14.0006 23.5473 14H16.4538C15.937 13.9995 15.4276 14.1216 14.9672 14.3563C14.5068 14.591 14.1087 14.9315 13.8055 15.35L11.6005 18.2908C11.1927 18.8634 10.981 19.5526 10.9969 20.2555C11.0129 20.9583 11.2557 21.6372 11.689 22.1908L17.9973 31.0325C18.2361 31.335 18.5405 31.5793 18.8875 31.7469C19.2345 31.9145 19.6151 32.0011 20.0005 32C20.3949 31.999 20.7837 31.9071 21.1369 31.7315C21.49 31.5559 21.7979 31.3013 22.0368 30.9875L28.2618 22.2808C28.7198 21.7184 28.978 21.0199 28.9961 20.2949C29.0141 19.5699 28.7909 18.8594 28.3615 18.275ZM13.4208 19.6153L15.6213 16.6783C15.7161 16.5459 15.841 16.438 15.9858 16.3636C16.1306 16.2891 16.291 16.2502 16.4538 16.25H18.247L17.137 20.1365L17.2008 20.375H22.8003L22.864 20.1365L21.754 16.25H23.5473C23.7132 16.251 23.8764 16.2919 24.0233 16.3691C24.1701 16.4464 24.2962 16.5578 24.391 16.694L26.5503 19.6115C26.6282 19.7209 26.683 19.845 26.7114 19.9763C26.7398 20.1075 26.7411 20.2432 26.7153 20.375H22.8003L20.3853 29.4313L20.2405 29.6345C20.2121 29.6709 20.1757 29.7003 20.134 29.7203C20.0924 29.7404 20.0467 29.7505 20.0005 29.75C19.9255 29.7538 19.8519 29.7285 19.795 29.6795L19.6143 29.4268L17.2008 20.375H13.2813C13.2518 20.2455 13.249 20.1114 13.273 19.9808C13.297 19.8502 13.3472 19.7258 13.4208 19.6153Z" fill="#F0E6FF"/>
</g>
<path d="M38.164 22.708H39.872C40.124 22.708 40.3667 22.6893 40.6 22.652C40.8333 22.6147 41.0387 22.5447 41.216 22.442C41.3933 22.33 41.5333 22.176 41.636 21.98C41.748 21.784 41.804 21.5273 41.804 21.21C41.804 20.8927 41.748 20.636 41.636 20.44C41.5333 20.244 41.3933 20.0947 41.216 19.992C41.0387 19.88 40.8333 19.8053 40.6 19.768C40.3667 19.7307 40.124 19.712 39.872 19.712H38.164V22.708ZM35.966 18.004H40.474C41.0993 18.004 41.6313 18.0973 42.07 18.284C42.5087 18.4613 42.8633 18.6993 43.134 18.998C43.414 19.2967 43.6147 19.6373 43.736 20.02C43.8667 20.4027 43.932 20.7993 43.932 21.21C43.932 21.6113 43.8667 22.008 43.736 22.4C43.6147 22.7827 43.414 23.1233 43.134 23.422C42.8633 23.7207 42.5087 23.9633 42.07 24.15C41.6313 24.3273 41.0993 24.416 40.474 24.416H38.164V28H35.966V18.004ZM47.5019 22.526H49.9099C50.4139 22.526 50.7919 22.414 51.0439 22.19C51.2959 21.966 51.4219 21.602 51.4219 21.098C51.4219 20.6127 51.2959 20.2627 51.0439 20.048C50.7919 19.824 50.4139 19.712 49.9099 19.712H47.5019V22.526ZM45.3039 18.004H50.6939C51.1419 18.004 51.5432 18.0787 51.8979 18.228C52.2619 18.368 52.5699 18.564 52.8219 18.816C53.0832 19.068 53.2792 19.362 53.4099 19.698C53.5499 20.0247 53.6199 20.3793 53.6199 20.762C53.6199 21.35 53.4939 21.8587 53.2419 22.288C52.9992 22.7173 52.5979 23.044 52.0379 23.268V23.296C52.3086 23.3707 52.5326 23.4873 52.7099 23.646C52.8872 23.7953 53.0319 23.9773 53.1439 24.192C53.2559 24.3973 53.3352 24.626 53.3819 24.878C53.4379 25.13 53.4752 25.382 53.4939 25.634C53.5032 25.7927 53.5126 25.9793 53.5219 26.194C53.5312 26.4087 53.5452 26.628 53.5639 26.852C53.5919 27.076 53.6292 27.2907 53.6759 27.496C53.7319 27.692 53.8112 27.86 53.9139 28H51.7159C51.5946 27.6827 51.5199 27.3047 51.4919 26.866C51.4639 26.4273 51.4219 26.0073 51.3659 25.606C51.2912 25.0833 51.1326 24.7007 50.8899 24.458C50.6472 24.2153 50.2506 24.094 49.6999 24.094H47.5019V28H45.3039V18.004ZM57.1714 23.044C57.1714 23.464 57.2181 23.8747 57.3114 24.276C57.4141 24.668 57.5727 25.0227 57.7874 25.34C58.0021 25.6573 58.2821 25.914 58.6274 26.11C58.9727 26.2967 59.3927 26.39 59.8874 26.39C60.3821 26.39 60.8021 26.2967 61.1474 26.11C61.4927 25.914 61.7727 25.6573 61.9874 25.34C62.2021 25.0227 62.3561 24.668 62.4494 24.276C62.5521 23.8747 62.6034 23.464 62.6034 23.044C62.6034 22.6053 62.5521 22.1807 62.4494 21.77C62.3561 21.3593 62.2021 20.9953 61.9874 20.678C61.7727 20.3513 61.4927 20.0947 61.1474 19.908C60.8021 19.712 60.3821 19.614 59.8874 19.614C59.3927 19.614 58.9727 19.712 58.6274 19.908C58.2821 20.0947 58.0021 20.3513 57.7874 20.678C57.5727 20.9953 57.4141 21.3593 57.3114 21.77C57.2181 22.1807 57.1714 22.6053 57.1714 23.044ZM54.9734 23.044C54.9734 22.2973 55.0854 21.6067 55.3094 20.972C55.5334 20.328 55.8554 19.768 56.2754 19.292C56.6954 18.816 57.2087 18.4427 57.8154 18.172C58.4314 17.9013 59.1221 17.766 59.8874 17.766C60.6621 17.766 61.3527 17.9013 61.9594 18.172C62.5661 18.4427 63.0794 18.816 63.4994 19.292C63.9194 19.768 64.2414 20.328 64.4654 20.972C64.6894 21.6067 64.8014 22.2973 64.8014 23.044C64.8014 23.772 64.6894 24.4533 64.4654 25.088C64.2414 25.7133 63.9194 26.2593 63.4994 26.726C63.0794 27.1927 62.5661 27.5613 61.9594 27.832C61.3527 28.0933 60.6621 28.224 59.8874 28.224C59.1221 28.224 58.4314 28.0933 57.8154 27.832C57.2087 27.5613 56.6954 27.1927 56.2754 26.726C55.8554 26.2593 55.5334 25.7133 55.3094 25.088C55.0854 24.4533 54.9734 23.772 54.9734 23.044Z" fill="#F0E6FF"/>
<path d="M87 27V0H57L87 27Z" fill="#7E38F2"/>
<path d="M87 19V46H57L87 19Z" fill="#6000FF"/>
</g>
<defs>
<filter id="filter0_b_403_1022" x="-12" y="-12" width="111" height="70" filterUnits="userSpaceOnUse" color-interpolation-filters="sRGB">
<feFlood flood-opacity="0" result="BackgroundImageFix"/>
<feGaussianBlur in="BackgroundImageFix" stdDeviation="6"/>
<feComposite in2="SourceAlpha" operator="in" result="effect1_backgroundBlur_403_1022"/>
<feBlend mode="normal" in="SourceGraphic" in2="effect1_backgroundBlur_403_1022" result="shape"/>
</filter>
<filter id="filter1_d_403_1022" x="6.99609" y="14" width="26.0039" height="26" filterUnits="userSpaceOnUse" color-interpolation-filters="sRGB">
<feFlood flood-opacity="0" result="BackgroundImageFix"/>
<feColorMatrix in="SourceAlpha" type="matrix" values="0 0 0 0 0 0 0 0 0 0 0 0 0 0 0 0 0 0 127 0" result="hardAlpha"/>
<feOffset dy="4"/>
<feGaussianBlur stdDeviation="2"/>
<feComposite in2="hardAlpha" operator="out"/>
<feColorMatrix type="matrix" values="0 0 0 0 0 0 0 0 0 0 0 0 0 0 0 0 0 0 0.25 0"/>
<feBlend mode="normal" in2="BackgroundImageFix" result="effect1_dropShadow_403_1022"/>
<feBlend mode="normal" in="SourceGraphic" in2="effect1_dropShadow_403_1022" result="shape"/>
</filter>
<linearGradient id="paint0_linear_403_1022" x1="43.5" y1="0" x2="43.5" y2="46" gradientUnits="userSpaceOnUse">
<stop stop-color="#131418"/>
<stop offset="1"/>
</linearGradient>
</defs>
</svg>
