<svg width="36" height="36" viewBox="0 0 36 36" fill="none" xmlns="http://www.w3.org/2000/svg">
<g filter="url(#filter0_b_405_1058)">
<path d="M18 36C27.9411 36 36 27.9411 36 18C36 8.05888 27.9411 0 18 0C8.05888 0 0 8.05888 0 18C0 27.9411 8.05888 36 18 36Z" fill="#00C69D"/>
</g>
<path d="M24.2172 14.9484C25.3161 15.9573 26.5511 16.8069 27.8861 17.4726C28.0448 17.5415 28.0068 17.9829 27.8068 18.2243C25.8021 20.6208 23.0514 20.3458 20.3007 20.0709C17.6765 19.8086 15.0523 19.5463 13.0758 21.6036L10.3448 11.8243C10.3176 11.7249 10.2795 11.6289 10.231 11.5381C12.2086 9.45082 14.8442 9.71429 17.4802 9.97779C20.231 10.2528 22.9822 10.5278 24.9861 8.1312C25.1861 7.88982 25.3758 7.99327 25.3344 8.34499C25.0729 10.4596 24.6686 12.554 24.1241 14.614C24.0887 14.7341 24.1248 14.8639 24.2172 14.9484Z" fill="white"/>
<path d="M13.4295 27.8975L13.0613 28.0004C12.7071 28.0994 12.3397 27.8925 12.2408 27.5383L8.03091 12.4732C7.90721 12.0305 8.16585 11.5713 8.6086 11.4475L8.65615 11.4343C8.86876 11.3749 9.09625 11.4023 9.2886 11.5107C9.48094 11.619 9.62237 11.7993 9.68177 12.0119L13.8915 27.077C13.9905 27.4312 13.7836 27.7985 13.4295 27.8975Z" fill="white"/>
<defs>
<filter id="filter0_b_405_1058" x="-1.85294" y="-1.85294" width="39.7059" height="39.7059" filterUnits="userSpaceOnUse" color-interpolation-filters="sRGB">
<feFlood flood-opacity="0" result="BackgroundImageFix"/>
<feGaussianBlur in="BackgroundImageFix" stdDeviation="0.926471"/>
<feComposite in2="SourceAlpha" operator="in" result="effect1_backgroundBlur_405_1058"/>
<feBlend mode="normal" in="SourceGraphic" in2="effect1_backgroundBlur_405_1058" result="shape"/>
</filter>
</defs>
</svg>
