<svg width="18" height="18" viewBox="0 0 18 18" fill="none" xmlns="http://www.w3.org/2000/svg">
<path d="M17.7724 14.9934L14.8885 17.7718C14.5727 18.0761 14.0614 18.0761 13.7456 17.7718L10.8617 14.9934C10.3773 14.5268 10.7201 13.7292 11.4049 13.7292H13.0894V6.43837C13.0894 5.67776 12.4472 5.05903 11.6577 5.05903C10.8682 5.05903 10.226 5.67776 10.226 6.43837V11.5616C10.226 13.6259 8.48253 15.3056 6.33985 15.3056C4.19717 15.3056 2.45374 13.6259 2.45374 11.5616V4.27083H0.770025C0.0852506 4.27083 -0.257546 3.47318 0.226787 3.00657L3.11069 0.228182C3.42649 -0.0760608 3.93782 -0.0760608 4.25362 0.228182L7.13753 3.00657C7.62186 3.47318 7.27906 4.27083 6.59429 4.27083H4.90976V11.5616C4.90976 12.3222 5.55199 12.941 6.34149 12.941C7.13098 12.941 7.77322 12.3222 7.77322 11.5616V6.43837C7.77322 4.37409 9.51665 2.69444 11.6593 2.69444C13.802 2.69444 15.5454 4.37409 15.5454 6.43837V13.7292H17.23C17.9147 13.7292 18.2575 14.5268 17.7732 14.9934H17.7724Z" fill="white" fill-opacity="0.7"/>
</svg>
